G04 ================== begin FILE IDENTIFICATION RECORD ==================*
G04 Layout Name:  D:/Facultate/proiecte/p1/2024/pcb21/STAB_TST_10/allegro/LAYOUT.brd*
G04 Film Name:    FAB*
G04 File Format:  Gerber RS274X*
G04 File Origin:  Cadence Allegro 16.6-P004*
G04 Origin Date:  Sat Dec 14 00:08:24 2024*
G04 *
G04 Layer:  MANUFACTURING/NCDRILL_LEGEND*
G04 Layer:  MANUFACTURING/NCDRILL_FIGURE*
G04 Layer:  MANUFACTURING/XSECTION_CHART*
G04 Layer:  MANUFACTURING/NCLEGEND-1-2*
G04 Layer:  BOARD GEOMETRY/OUTLINE*
G04 Layer:  BOARD GEOMETRY/DIMENSION*
G04 *
G04 Offset:    (0.00 0.00)*
G04 Mirror:    No*
G04 Mode:      Positive*
G04 Rotation:  0*
G04 FullContactRelief:  No*
G04 UndefLineWidth:     7.00*
G04 ================== end FILE IDENTIFICATION RECORD ====================*
%FSLAX25Y25*MOIN*%
%IR0*IPPOS*OFA0.00000B0.00000*MIA0B0*SFA1.00000B1.00000*%
%AMMACRO10*
1,1,.007,.025,0.0*
20,1,.007,.025,0.0,.02462,-.004341,0.0*
1,1,.007,.02462,-.004341*
20,1,.007,.02462,-.004341,.023492,-.008551,0.0*
1,1,.007,.023492,-.008551*
20,1,.007,.023492,-.008551,.021651,-.0125,0.0*
1,1,.007,.021651,-.0125*
20,1,.007,.021651,-.0125,.019151,-.01607,0.0*
1,1,.007,.019151,-.01607*
20,1,.007,.019151,-.01607,.01607,-.019151,0.0*
1,1,.007,.01607,-.019151*
20,1,.007,.01607,-.019151,.0125,-.021651,0.0*
1,1,.007,.0125,-.021651*
20,1,.007,.0125,-.021651,.008551,-.023492,0.0*
1,1,.007,.008551,-.023492*
20,1,.007,.008551,-.023492,.004341,-.02462,0.0*
1,1,.007,.004341,-.02462*
20,1,.007,.004341,-.02462,0.0,-.025,0.0*
1,1,.007,0.0,-.025*
20,1,.007,0.0,-.025,-.004341,-.02462,0.0*
1,1,.007,-.004341,-.02462*
20,1,.007,-.004341,-.02462,-.008551,-.023492,0.0*
1,1,.007,-.008551,-.023492*
20,1,.007,-.008551,-.023492,-.0125,-.021651,0.0*
1,1,.007,-.0125,-.021651*
20,1,.007,-.0125,-.021651,-.01607,-.019151,0.0*
1,1,.007,-.01607,-.019151*
20,1,.007,-.01607,-.019151,-.019151,-.01607,0.0*
1,1,.007,-.019151,-.01607*
20,1,.007,-.019151,-.01607,-.021651,-.0125,0.0*
1,1,.007,-.021651,-.0125*
20,1,.007,-.021651,-.0125,-.023492,-.008551,0.0*
1,1,.007,-.023492,-.008551*
20,1,.007,-.023492,-.008551,-.02462,-.004341,0.0*
1,1,.007,-.02462,-.004341*
20,1,.007,-.02462,-.004341,-.025,0.0,0.0*
1,1,.007,-.025,0.0*
20,1,.007,-.025,0.0,-.02462,.004341,0.0*
1,1,.007,-.02462,.004341*
20,1,.007,-.02462,.004341,-.023492,.008551,0.0*
1,1,.007,-.023492,.008551*
20,1,.007,-.023492,.008551,-.021651,.0125,0.0*
1,1,.007,-.021651,.0125*
20,1,.007,-.021651,.0125,-.019151,.01607,0.0*
1,1,.007,-.019151,.01607*
20,1,.007,-.019151,.01607,-.01607,.019151,0.0*
1,1,.007,-.01607,.019151*
20,1,.007,-.01607,.019151,-.0125,.021651,0.0*
1,1,.007,-.0125,.021651*
20,1,.007,-.0125,.021651,-.008551,.023492,0.0*
1,1,.007,-.008551,.023492*
20,1,.007,-.008551,.023492,-.004341,.02462,0.0*
1,1,.007,-.004341,.02462*
20,1,.007,-.004341,.02462,0.0,.025,0.0*
1,1,.007,0.0,.025*
20,1,.007,0.0,.025,.004341,.02462,0.0*
1,1,.007,.004341,.02462*
20,1,.007,.004341,.02462,.008551,.023492,0.0*
1,1,.007,.008551,.023492*
20,1,.007,.008551,.023492,.0125,.021651,0.0*
1,1,.007,.0125,.021651*
20,1,.007,.0125,.021651,.01607,.019151,0.0*
1,1,.007,.01607,.019151*
20,1,.007,.01607,.019151,.019151,.01607,0.0*
1,1,.007,.019151,.01607*
20,1,.007,.019151,.01607,.021651,.0125,0.0*
1,1,.007,.021651,.0125*
20,1,.007,.021651,.0125,.023492,.008551,0.0*
1,1,.007,.023492,.008551*
20,1,.007,.023492,.008551,.02462,.004341,0.0*
1,1,.007,.02462,.004341*
20,1,.007,.02462,.004341,.025,0.0,0.0*
1,1,.007,.025,0.0*
1,1,.007,.0125,0.0*
20,1,.007,.0125,0.0,-.0125,0.0,0.0*
1,1,.007,-.0125,0.0*
1,1,.007,0.0,.0125*
20,1,.007,0.0,.0125,0.0,-.0125,0.0*
1,1,.007,0.0,-.0125*
%
%ADD10MACRO10*%
%ADD11C,.007*%
G75*
%LPD*%
G75*
G36*
G01X58950Y-39804D02*
Y-42076D01*
X61450D01*
Y-239100D01*
X58950D01*
Y-241372D01*
X73950D01*
Y-239100D01*
X71450D01*
Y-42076D01*
X73950D01*
Y-39804D01*
X58950D01*
G37*
G36*
G01X38950Y-241372D02*
Y-239100D01*
X98950D01*
Y-241372D01*
X38950D01*
G37*
G36*
G01Y-42076D02*
Y-39804D01*
X98950D01*
Y-42076D01*
X38950D01*
G37*
G54D10*
X38100Y15600D03*
X39700Y111200D03*
X59400Y65800D03*
X70600Y63500D03*
X76200Y43600D03*
X104000Y36500D03*
X106500Y122200D03*
X117000Y93700D03*
X146055Y12745D03*
X277450Y17250D03*
G54D11*
G01X-48600Y88750D02*
Y101250D01*
X-50460Y98750D01*
G01Y88750D02*
X-46740D01*
G01X-36200Y88333D02*
X-36510Y88542D01*
Y88958D01*
X-36200Y89167D01*
X-35890Y88958D01*
Y88542D01*
X-36200Y88333D01*
G01X-27210Y90625D02*
X-26280Y89583D01*
X-25195Y88958D01*
X-23800Y88750D01*
X-22405Y89167D01*
X-21320Y90000D01*
X-20545Y91458D01*
X-20390Y93125D01*
X-20700Y94792D01*
X-21475Y95833D01*
X-22560Y96667D01*
X-23645Y96875D01*
X-24730Y96667D01*
X-26125Y95833D01*
X-25660Y101250D01*
X-21475D01*
G01X-11710Y88750D02*
X-11400Y91458D01*
X-10935Y93750D01*
X-10315Y95833D01*
X-9540Y98125D01*
X-8300Y101250D01*
X-14500D01*
G01X-10000Y0D02*
X-40000D01*
G01X-30000Y79375D02*
Y0D01*
G01X-32500Y15000D02*
X-30000Y0D01*
X-27500Y15000D01*
X-32500D01*
G01X-30000Y110625D02*
Y157480D01*
G01X-10000D02*
X-40000D01*
G01X-27500Y142480D02*
X-30000Y157480D01*
X-32500Y142480D01*
X-27500D01*
G01X0Y-10000D02*
Y-27500D01*
G01Y0D02*
Y157480D01*
X157480D01*
Y0D01*
X0D01*
G01X67375Y-17500D02*
X0D01*
G01X15000Y-15000D02*
X0Y-17500D01*
X15000Y-20000D01*
Y-15000D01*
G01X0Y167480D02*
Y187500D01*
G01X39875Y177500D02*
X0D01*
G01X15000Y180000D02*
X0Y177500D01*
X15000Y175000D01*
Y180000D01*
G01X38950Y-239100D02*
Y-42076D01*
X98950D01*
Y-239100D01*
X38950D01*
G01X53900Y171250D02*
Y183750D01*
X52040Y181250D01*
G01Y171250D02*
X55760D01*
G01X66300Y170833D02*
X65990Y171042D01*
Y171458D01*
X66300Y171667D01*
X66610Y171458D01*
Y171042D01*
X66300Y170833D01*
G01X75290Y173125D02*
X76220Y172083D01*
X77305Y171458D01*
X78700Y171250D01*
X80095Y171667D01*
X81180Y172500D01*
X81955Y173958D01*
X82110Y175625D01*
X81800Y177292D01*
X81025Y178333D01*
X79940Y179167D01*
X78855Y179375D01*
X77770Y179167D01*
X76375Y178333D01*
X76840Y183750D01*
X81025D01*
G01X90790Y171250D02*
X91100Y173958D01*
X91565Y176250D01*
X92185Y178333D01*
X92960Y180625D01*
X94200Y183750D01*
X88000D01*
G01X81400Y-23750D02*
Y-11250D01*
X79540Y-13750D01*
G01Y-23750D02*
X83260D01*
G01X93800Y-24167D02*
X93490Y-23958D01*
Y-23542D01*
X93800Y-23333D01*
X94110Y-23542D01*
Y-23958D01*
X93800Y-24167D01*
G01X102790Y-21875D02*
X103720Y-22917D01*
X104805Y-23542D01*
X106200Y-23750D01*
X107595Y-23333D01*
X108680Y-22500D01*
X109455Y-21042D01*
X109610Y-19375D01*
X109300Y-17708D01*
X108525Y-16667D01*
X107440Y-15833D01*
X106355Y-15625D01*
X105270Y-15833D01*
X103875Y-16667D01*
X104340Y-11250D01*
X108525D01*
G01X118290Y-23750D02*
X118600Y-21042D01*
X119065Y-18750D01*
X119685Y-16667D01*
X120460Y-14375D01*
X121700Y-11250D01*
X115500D01*
G01X105125Y177500D02*
X157480D01*
G01X132625Y-17500D02*
X157480D01*
G01Y-10000D02*
Y-27500D01*
G01X167480Y0D02*
X195000D01*
G01X142480Y-20000D02*
X157480Y-17500D01*
X142480Y-15000D01*
Y-20000D01*
G01X166400Y73750D02*
Y86250D01*
X164540Y83750D01*
G01Y73750D02*
X168260D01*
G01X178800Y73333D02*
X178490Y73542D01*
Y73958D01*
X178800Y74167D01*
X179110Y73958D01*
Y73542D01*
X178800Y73333D01*
G01X187790Y75625D02*
X188720Y74583D01*
X189805Y73958D01*
X191200Y73750D01*
X192595Y74167D01*
X193680Y75000D01*
X194455Y76458D01*
X194610Y78125D01*
X194300Y79792D01*
X193525Y80833D01*
X192440Y81667D01*
X191355Y81875D01*
X190270Y81667D01*
X188875Y80833D01*
X189340Y86250D01*
X193525D01*
G01X203290Y73750D02*
X203600Y76458D01*
X204065Y78750D01*
X204685Y80833D01*
X205460Y83125D01*
X206700Y86250D01*
X200500D01*
G01X167480Y157480D02*
X195000D01*
G01X157480Y167480D02*
Y187500D01*
G01X142480Y175000D02*
X157480Y177500D01*
X142480Y180000D01*
Y175000D01*
G01X185000Y64375D02*
Y0D01*
G01X182500Y15000D02*
X185000Y0D01*
X187500Y15000D01*
X182500D01*
G01X185000Y95625D02*
Y157480D01*
G01X187500Y142480D02*
X185000Y157480D01*
X182500Y142480D01*
X187500D01*
G01X232500Y3200D02*
Y112500D01*
X716100D01*
Y3200D01*
X232500D01*
G01X243505Y40650D02*
Y53150D01*
X249395D01*
G01X247225Y47108D02*
X243505D01*
G01X256990Y53150D02*
X260710D01*
G01X258850D02*
Y40650D01*
G01X256990D02*
X260710D01*
G01X272180Y46900D02*
X275280D01*
Y43150D01*
X274350Y41900D01*
X273265Y41067D01*
X271715Y40650D01*
X270165Y41067D01*
X269080Y41900D01*
X268150Y43150D01*
X267530Y44608D01*
X267220Y46275D01*
Y47733D01*
X267530Y48983D01*
X268150Y50442D01*
X269080Y51692D01*
X270010Y52525D01*
X271250Y53150D01*
X272335D01*
X273575Y52733D01*
X274505Y51900D01*
G01X280240Y53150D02*
Y44192D01*
X280860Y42316D01*
X282100Y41067D01*
X283650Y40650D01*
X285200Y41067D01*
X286440Y42316D01*
X287060Y44192D01*
Y53150D01*
G01X292950Y40650D02*
Y53150D01*
X296825D01*
X298065Y52525D01*
X298840Y51692D01*
X299150Y50025D01*
X298840Y48358D01*
X297910Y47317D01*
X296825Y46692D01*
X292950D01*
G01X296825D02*
X299150Y40650D01*
G01X311550D02*
X305350D01*
Y53150D01*
X311550D01*
G01X309070Y47108D02*
X305350D01*
G01X232500Y31300D02*
X716100D01*
G01X232500Y59400D02*
X716100D01*
G01X232500Y87500D02*
X716100D01*
G01X315890Y93750D02*
Y106250D01*
X318990D01*
X320230Y105625D01*
X321160Y104792D01*
X321935Y103542D01*
X322555Y102083D01*
X322710Y100000D01*
X322555Y97917D01*
X321935Y96458D01*
X321160Y95208D01*
X320230Y94375D01*
X318990Y93750D01*
X315890D01*
G01X328600D02*
Y106250D01*
X332475D01*
X333715Y105625D01*
X334490Y104792D01*
X334800Y103125D01*
X334490Y101458D01*
X333560Y100417D01*
X332475Y99792D01*
X328600D01*
G01X332475D02*
X334800Y93750D01*
G01X342240Y106250D02*
X345960D01*
G01X344100D02*
Y93750D01*
G01X342240D02*
X345960D01*
G01X353400Y106250D02*
Y93750D01*
X359600D01*
G01X365800Y106250D02*
Y93750D01*
X372000D01*
G01X397110Y105208D02*
X396180Y105833D01*
X395095Y106250D01*
X393855D01*
X392460Y105625D01*
X391375Y104583D01*
X390600Y103333D01*
X389980Y101250D01*
X389825Y99375D01*
X390135Y97500D01*
X390600Y96250D01*
X391530Y95000D01*
X392615Y94167D01*
X393700Y93750D01*
X394785D01*
X395870Y94167D01*
X396800Y94791D01*
X397575Y95625D01*
G01X402845Y93750D02*
Y106250D01*
G01X409355D02*
Y93750D01*
G01Y100000D02*
X402845D01*
G01X414625Y93750D02*
X418500Y106250D01*
X422375Y93750D01*
G01X420980Y98125D02*
X416020D01*
G01X427800Y93750D02*
Y106250D01*
X431675D01*
X432915Y105625D01*
X433690Y104792D01*
X434000Y103125D01*
X433690Y101458D01*
X432760Y100417D01*
X431675Y99792D01*
X427800D01*
G01X431675D02*
X434000Y93750D01*
G01X443300Y106250D02*
Y93750D01*
G01X439735Y106250D02*
X446865D01*
G01X455700Y93333D02*
X455390Y93542D01*
Y93958D01*
X455700Y94167D01*
X456010Y93958D01*
Y93542D01*
X455700Y93333D01*
G01Y98958D02*
X455390Y99167D01*
Y99583D01*
X455700Y99792D01*
X456010Y99583D01*
Y99167D01*
X455700Y98958D01*
G01X480500Y106250D02*
Y93750D01*
G01X476935Y106250D02*
X484065D01*
G01X492900Y93750D02*
X491660Y93958D01*
X490575Y94791D01*
X489645Y96042D01*
X489025Y97500D01*
X488715Y99167D01*
Y100833D01*
X489025Y102500D01*
X489645Y103958D01*
X490575Y105208D01*
X491660Y106042D01*
X492900Y106250D01*
X494140Y106042D01*
X495225Y105208D01*
X496155Y103958D01*
X496775Y102500D01*
X497085Y100833D01*
Y99167D01*
X496775Y97500D01*
X496155Y96042D01*
X495225Y94791D01*
X494140Y93958D01*
X492900Y93750D01*
G01X502200D02*
Y106250D01*
X505920D01*
X507160Y105625D01*
X508090Y104167D01*
X508400Y102500D01*
X508090Y100833D01*
X507315Y99583D01*
X505920Y98958D01*
X502200D01*
G01X530100Y106250D02*
Y93750D01*
G01X527930Y102083D02*
X532270D01*
G01X542500Y93750D02*
X541570Y93958D01*
X540640Y94791D01*
X540020Y96250D01*
X539710Y97917D01*
X540020Y99583D01*
X540640Y101042D01*
X541570Y101875D01*
X542500Y102083D01*
X543430Y101875D01*
X544360Y101042D01*
X544980Y99583D01*
X545135Y97917D01*
X544980Y96250D01*
X544360Y94791D01*
X543430Y93958D01*
X542500Y93750D01*
G01X568540Y100417D02*
X569160Y101042D01*
X569625Y102083D01*
X569935Y103542D01*
X569625Y104792D01*
X569005Y105625D01*
X567920Y106250D01*
X563735D01*
Y93750D01*
X568850D01*
X569935Y94583D01*
X570555Y95833D01*
X570865Y97292D01*
X570555Y98750D01*
X569625Y100000D01*
X568540Y100417D01*
X563735D01*
G01X579700Y93750D02*
X578460Y93958D01*
X577375Y94791D01*
X576445Y96042D01*
X575825Y97500D01*
X575515Y99167D01*
Y100833D01*
X575825Y102500D01*
X576445Y103958D01*
X577375Y105208D01*
X578460Y106042D01*
X579700Y106250D01*
X580940Y106042D01*
X582025Y105208D01*
X582955Y103958D01*
X583575Y102500D01*
X583885Y100833D01*
Y99167D01*
X583575Y97500D01*
X582955Y96042D01*
X582025Y94791D01*
X580940Y93958D01*
X579700Y93750D01*
G01X592100Y106250D02*
Y93750D01*
G01X588535Y106250D02*
X595665D01*
G01X604500D02*
Y93750D01*
G01X600935Y106250D02*
X608065D01*
G01X616900Y93750D02*
X615660Y93958D01*
X614575Y94791D01*
X613645Y96042D01*
X613025Y97500D01*
X612715Y99167D01*
Y100833D01*
X613025Y102500D01*
X613645Y103958D01*
X614575Y105208D01*
X615660Y106042D01*
X616900Y106250D01*
X618140Y106042D01*
X619225Y105208D01*
X620155Y103958D01*
X620775Y102500D01*
X621085Y100833D01*
Y99167D01*
X620775Y97500D01*
X620155Y96042D01*
X619225Y94791D01*
X618140Y93958D01*
X616900Y93750D01*
G01X625270D02*
Y106250D01*
X629300Y95833D01*
X633330Y106250D01*
Y93750D01*
G01X322400Y59400D02*
Y3200D01*
G01X346425Y68750D02*
X350300Y81250D01*
X354175Y68750D01*
G01X352780Y73125D02*
X347820D01*
G01X359600Y81250D02*
Y68750D01*
X365800D01*
G01X372000Y81250D02*
Y68750D01*
X378200D01*
G01X396490Y81250D02*
Y72292D01*
X397110Y70416D01*
X398350Y69167D01*
X399900Y68750D01*
X401450Y69167D01*
X402690Y70416D01*
X403310Y72292D01*
Y81250D01*
G01X408735Y68750D02*
Y81250D01*
X415865Y68750D01*
Y81250D01*
G01X422840D02*
X426560D01*
G01X424700D02*
Y68750D01*
G01X422840D02*
X426560D01*
G01X437100Y81250D02*
Y68750D01*
G01X433535Y81250D02*
X440665D01*
G01X446245Y70416D02*
X447485Y69375D01*
X448880Y68750D01*
X450120D01*
X451360Y69375D01*
X452290Y70416D01*
X452755Y71875D01*
X452445Y73333D01*
X451670Y74583D01*
X450275Y75417D01*
X448415Y75833D01*
X447330Y76667D01*
X446865Y78125D01*
X447175Y79583D01*
X447950Y80625D01*
X449035Y81250D01*
X450120D01*
X451205Y80833D01*
X452135Y79792D01*
G01X470425Y68750D02*
X474300Y81250D01*
X478175Y68750D01*
G01X476780Y73125D02*
X471820D01*
G01X483600Y68750D02*
Y81250D01*
X487475D01*
X488715Y80625D01*
X489490Y79792D01*
X489800Y78125D01*
X489490Y76458D01*
X488560Y75417D01*
X487475Y74792D01*
X483600D01*
G01X487475D02*
X489800Y68750D01*
G01X502200D02*
X496000D01*
Y81250D01*
X502200D01*
G01X499720Y75208D02*
X496000D01*
G01X522040Y81250D02*
X525760D01*
G01X523900D02*
Y68750D01*
G01X522040D02*
X525760D01*
G01X532735D02*
Y81250D01*
X539865Y68750D01*
Y81250D01*
G01X557070Y68750D02*
Y81250D01*
X561100Y70833D01*
X565130Y81250D01*
Y68750D01*
G01X571640Y81250D02*
X575360D01*
G01X573500D02*
Y68750D01*
G01X571640D02*
X575360D01*
G01X582800Y81250D02*
Y68750D01*
X589000D01*
G01X595045Y70416D02*
X596285Y69375D01*
X597680Y68750D01*
X598920D01*
X600160Y69375D01*
X601090Y70416D01*
X601555Y71875D01*
X601245Y73333D01*
X600470Y74583D01*
X599075Y75417D01*
X597215Y75833D01*
X596130Y76667D01*
X595665Y78125D01*
X595975Y79583D01*
X596750Y80625D01*
X597835Y81250D01*
X598920D01*
X600005Y80833D01*
X600935Y79792D01*
G01X392150Y11000D02*
Y23500D01*
X390290Y21000D01*
G01Y11000D02*
X394010D01*
G01X401140Y12875D02*
X402070Y11833D01*
X403155Y11208D01*
X404550Y11000D01*
X405945Y11417D01*
X407030Y12250D01*
X407805Y13708D01*
X407960Y15375D01*
X407650Y17042D01*
X406875Y18083D01*
X405790Y18917D01*
X404705Y19125D01*
X403620Y18917D01*
X402225Y18083D01*
X402690Y23500D01*
X406875D01*
G01X416950Y10583D02*
X416640Y10792D01*
Y11208D01*
X416950Y11417D01*
X417260Y11208D01*
Y10792D01*
X416950Y10583D01*
G01X429040Y11000D02*
X429350Y13708D01*
X429815Y16000D01*
X430435Y18083D01*
X431210Y20375D01*
X432450Y23500D01*
X426250D01*
G01X443610Y11000D02*
Y23500D01*
X437875Y14542D01*
X445625D01*
G01X395095Y42316D02*
X396335Y41275D01*
X397730Y40650D01*
X398970D01*
X400210Y41275D01*
X401140Y42316D01*
X401605Y43775D01*
X401295Y45233D01*
X400520Y46483D01*
X399125Y47317D01*
X397265Y47733D01*
X396180Y48567D01*
X395715Y50025D01*
X396025Y51483D01*
X396800Y52525D01*
X397885Y53150D01*
X398970D01*
X400055Y52733D01*
X400985Y51692D01*
G01X408890Y53150D02*
X412610D01*
G01X410750D02*
Y40650D01*
G01X408890D02*
X412610D01*
G01X420205Y53150D02*
X426095D01*
X420205Y40650D01*
X426095D01*
G01X438650D02*
X432450D01*
Y53150D01*
X438650D01*
G01X436170Y47108D02*
X432450D01*
G01X511500Y59400D02*
Y3200D01*
G01X540950Y11000D02*
Y23500D01*
X544670D01*
X545910Y22875D01*
X546840Y21417D01*
X547150Y19750D01*
X546840Y18083D01*
X546065Y16833D01*
X544670Y16208D01*
X540950D01*
G01X553350Y23500D02*
Y11000D01*
X559550D01*
G01X564975D02*
X568850Y23500D01*
X572725Y11000D01*
G01X571330Y15375D02*
X566370D01*
G01X581250Y23500D02*
Y11000D01*
G01X577685Y23500D02*
X584815D01*
G01X596750Y11000D02*
X590550D01*
Y23500D01*
X596750D01*
G01X594270Y17458D02*
X590550D01*
G01X602640Y11000D02*
Y23500D01*
X605740D01*
X606980Y22875D01*
X607910Y22042D01*
X608685Y20792D01*
X609305Y19333D01*
X609460Y17250D01*
X609305Y15167D01*
X608685Y13708D01*
X607910Y12458D01*
X606980Y11625D01*
X605740Y11000D01*
X602640D01*
G01X540950Y40650D02*
Y53150D01*
X544670D01*
X545910Y52525D01*
X546840Y51067D01*
X547150Y49400D01*
X546840Y47733D01*
X546065Y46483D01*
X544670Y45858D01*
X540950D01*
G01X553350Y53150D02*
Y40650D01*
X559550D01*
G01X564975D02*
X568850Y53150D01*
X572725Y40650D01*
G01X571330Y45025D02*
X566370D01*
G01X581250Y53150D02*
Y40650D01*
G01X577685Y53150D02*
X584815D01*
G01X596750Y40650D02*
X590550D01*
Y53150D01*
X596750D01*
G01X594270Y47108D02*
X590550D01*
G01X602640Y40650D02*
Y53150D01*
X605740D01*
X606980Y52525D01*
X607910Y51692D01*
X608685Y50442D01*
X609305Y48983D01*
X609460Y46900D01*
X609305Y44817D01*
X608685Y43358D01*
X607910Y42108D01*
X606980Y41275D01*
X605740Y40650D01*
X602640D01*
G01X638600Y59400D02*
Y3200D01*
G01X674715Y12458D02*
X675800Y11417D01*
X677040Y11000D01*
X678280Y11417D01*
X679365Y12666D01*
X680140Y14542D01*
X680450Y16417D01*
Y18708D01*
X680140Y20583D01*
X679365Y22250D01*
X678435Y23083D01*
X677350Y23500D01*
X676110Y23083D01*
X675180Y22250D01*
X674560Y21000D01*
X674250Y19333D01*
X674560Y17875D01*
X675335Y16417D01*
X676265Y15583D01*
X677350Y15375D01*
X678590Y15791D01*
X679520Y16833D01*
X680450Y18708D01*
G01X664950Y40650D02*
X663710Y40858D01*
X662625Y41691D01*
X661695Y42942D01*
X661075Y44400D01*
X660765Y46067D01*
Y47733D01*
X661075Y49400D01*
X661695Y50858D01*
X662625Y52108D01*
X663710Y52942D01*
X664950Y53150D01*
X666190Y52942D01*
X667275Y52108D01*
X668205Y50858D01*
X668825Y49400D01*
X669135Y47733D01*
Y46067D01*
X668825Y44400D01*
X668205Y42942D01*
X667275Y41691D01*
X666190Y40858D01*
X664950Y40650D01*
G01X666190Y43983D02*
X668050Y40650D01*
G01X677350Y53150D02*
Y40650D01*
G01X673785Y53150D02*
X680915D01*
G01X689750Y40650D02*
Y46275D01*
X686650Y53150D01*
G01X692850D02*
X689750Y46275D01*
G01X37750Y-257450D02*
Y-260450D01*
G01X36983Y-257450D02*
X38517D01*
G01X40350Y-260450D02*
X40083Y-260400D01*
X39850Y-260200D01*
X39650Y-259900D01*
X39517Y-259550D01*
X39450Y-259150D01*
Y-258750D01*
X39517Y-258350D01*
X39650Y-258000D01*
X39850Y-257700D01*
X40083Y-257500D01*
X40350Y-257450D01*
X40617Y-257500D01*
X40850Y-257700D01*
X41050Y-258000D01*
X41183Y-258350D01*
X41250Y-258750D01*
Y-259150D01*
X41183Y-259550D01*
X41050Y-259900D01*
X40850Y-260200D01*
X40617Y-260400D01*
X40350Y-260450D01*
G01X42950Y-257450D02*
Y-260450D01*
G01X42183Y-257450D02*
X43717D01*
G01X44717Y-260450D02*
X45550Y-257450D01*
X46383Y-260450D01*
G01X46083Y-259400D02*
X45017D01*
G01X47483Y-257450D02*
Y-260450D01*
X48817D01*
G01X53350Y-257450D02*
Y-260450D01*
G01X52583Y-257450D02*
X54117D01*
G01X55250Y-260450D02*
Y-257450D01*
G01X56650D02*
Y-260450D01*
G01Y-258950D02*
X55250D01*
G01X58150Y-257450D02*
X58950D01*
G01X58550D02*
Y-260450D01*
G01X58150D02*
X58950D01*
G01X61883Y-257700D02*
X61683Y-257550D01*
X61450Y-257450D01*
X61183D01*
X60883Y-257600D01*
X60650Y-257850D01*
X60483Y-258150D01*
X60350Y-258650D01*
X60317Y-259100D01*
X60383Y-259550D01*
X60483Y-259850D01*
X60683Y-260150D01*
X60917Y-260350D01*
X61150Y-260450D01*
X61383D01*
X61617Y-260350D01*
X61817Y-260200D01*
X61983Y-260000D01*
G01X63017Y-260450D02*
Y-257450D01*
G01X64283D02*
X63017Y-259300D01*
G01X64483Y-260450D02*
X63583Y-258450D01*
G01X65583Y-260450D02*
Y-257450D01*
X67117Y-260450D01*
Y-257450D01*
G01X69617Y-260450D02*
X68283D01*
Y-257450D01*
X69617D01*
G01X69083Y-258900D02*
X68283D01*
G01X70850Y-260050D02*
X71117Y-260300D01*
X71417Y-260450D01*
X71683D01*
X71950Y-260300D01*
X72150Y-260050D01*
X72250Y-259700D01*
X72183Y-259350D01*
X72017Y-259050D01*
X71717Y-258850D01*
X71317Y-258750D01*
X71083Y-258550D01*
X70983Y-258200D01*
X71050Y-257850D01*
X71217Y-257600D01*
X71450Y-257450D01*
X71683D01*
X71917Y-257550D01*
X72117Y-257800D01*
G01X73450Y-260050D02*
X73717Y-260300D01*
X74017Y-260450D01*
X74283D01*
X74550Y-260300D01*
X74750Y-260050D01*
X74850Y-259700D01*
X74783Y-259350D01*
X74617Y-259050D01*
X74317Y-258850D01*
X73917Y-258750D01*
X73683Y-258550D01*
X73583Y-258200D01*
X73650Y-257850D01*
X73817Y-257600D01*
X74050Y-257450D01*
X74283D01*
X74517Y-257550D01*
X74717Y-257800D01*
G01X78717Y-259200D02*
X78950Y-258850D01*
X79150Y-258650D01*
X79417Y-258550D01*
X79650Y-258650D01*
X79817Y-258850D01*
X79950Y-259150D01*
X79983Y-259500D01*
X79950Y-259800D01*
X79817Y-260100D01*
X79617Y-260350D01*
X79383Y-260450D01*
X79117Y-260350D01*
X78883Y-260050D01*
X78750Y-259600D01*
X78717Y-259100D01*
X78783Y-258450D01*
X78883Y-258100D01*
X79050Y-257750D01*
X79283Y-257500D01*
X79517Y-257450D01*
X79750Y-257550D01*
X79917Y-257800D01*
G01X81317Y-257950D02*
X81517Y-257650D01*
X81750Y-257500D01*
X82017Y-257450D01*
X82350Y-257550D01*
X82583Y-257800D01*
X82650Y-258100D01*
X82617Y-258400D01*
X82483Y-258650D01*
X81817Y-259150D01*
X81517Y-259500D01*
X81317Y-260000D01*
X81250Y-260450D01*
X82650D01*
G01X84550Y-260550D02*
X84483Y-260500D01*
Y-260400D01*
X84550Y-260350D01*
X84617Y-260400D01*
Y-260500D01*
X84550Y-260550D01*
G01X86583Y-260100D02*
X86817Y-260350D01*
X87083Y-260450D01*
X87350Y-260350D01*
X87583Y-260050D01*
X87750Y-259600D01*
X87817Y-259150D01*
Y-258600D01*
X87750Y-258150D01*
X87583Y-257750D01*
X87383Y-257550D01*
X87150Y-257450D01*
X86883Y-257550D01*
X86683Y-257750D01*
X86550Y-258050D01*
X86483Y-258450D01*
X86550Y-258800D01*
X86717Y-259150D01*
X86917Y-259350D01*
X87150Y-259400D01*
X87417Y-259300D01*
X87617Y-259050D01*
X87817Y-258600D01*
G01X89183Y-260100D02*
X89417Y-260350D01*
X89683Y-260450D01*
X89950Y-260350D01*
X90183Y-260050D01*
X90350Y-259600D01*
X90417Y-259150D01*
Y-258600D01*
X90350Y-258150D01*
X90183Y-257750D01*
X89983Y-257550D01*
X89750Y-257450D01*
X89483Y-257550D01*
X89283Y-257750D01*
X89150Y-258050D01*
X89083Y-258450D01*
X89150Y-258800D01*
X89317Y-259150D01*
X89517Y-259350D01*
X89750Y-259400D01*
X90017Y-259300D01*
X90217Y-259050D01*
X90417Y-258600D01*
G01X94083Y-260450D02*
Y-257450D01*
X94950Y-259950D01*
X95817Y-257450D01*
Y-260450D01*
G01X97150Y-257450D02*
X97950D01*
G01X97550D02*
Y-260450D01*
G01X97150D02*
X97950D01*
G01X99483Y-257450D02*
Y-260450D01*
X100817D01*
G01X35717Y-254450D02*
Y-251450D01*
X36383D01*
X36650Y-251600D01*
X36850Y-251800D01*
X37017Y-252100D01*
X37150Y-252450D01*
X37183Y-252950D01*
X37150Y-253450D01*
X37017Y-253800D01*
X36850Y-254100D01*
X36650Y-254300D01*
X36383Y-254450D01*
X35717D01*
G01X39717D02*
X38383D01*
Y-251450D01*
X39717D01*
G01X39183Y-252900D02*
X38383D01*
G01X40950Y-254050D02*
X41217Y-254300D01*
X41517Y-254450D01*
X41783D01*
X42050Y-254300D01*
X42250Y-254050D01*
X42350Y-253700D01*
X42283Y-253350D01*
X42117Y-253050D01*
X41817Y-252850D01*
X41417Y-252750D01*
X41183Y-252550D01*
X41083Y-252200D01*
X41150Y-251850D01*
X41317Y-251600D01*
X41550Y-251450D01*
X41783D01*
X42017Y-251550D01*
X42217Y-251800D01*
G01X43850Y-251450D02*
X44650D01*
G01X44250D02*
Y-254450D01*
G01X43850D02*
X44650D01*
G01X47050Y-252950D02*
X47717D01*
Y-253850D01*
X47517Y-254150D01*
X47283Y-254350D01*
X46950Y-254450D01*
X46617Y-254350D01*
X46383Y-254150D01*
X46183Y-253850D01*
X46050Y-253500D01*
X45983Y-253100D01*
Y-252750D01*
X46050Y-252450D01*
X46183Y-252100D01*
X46383Y-251800D01*
X46583Y-251600D01*
X46850Y-251450D01*
X47083D01*
X47350Y-251550D01*
X47550Y-251750D01*
G01X48683Y-254450D02*
Y-251450D01*
X50217Y-254450D01*
Y-251450D01*
G01X55383Y-251700D02*
X55183Y-251550D01*
X54950Y-251450D01*
X54683D01*
X54383Y-251600D01*
X54150Y-251850D01*
X53983Y-252150D01*
X53850Y-252650D01*
X53817Y-253100D01*
X53883Y-253550D01*
X53983Y-253850D01*
X54183Y-254150D01*
X54417Y-254350D01*
X54650Y-254450D01*
X54883D01*
X55117Y-254350D01*
X55317Y-254200D01*
X55483Y-254000D01*
G01X56583Y-254450D02*
Y-251450D01*
X57417D01*
X57683Y-251600D01*
X57850Y-251800D01*
X57917Y-252200D01*
X57850Y-252600D01*
X57650Y-252850D01*
X57417Y-253000D01*
X56583D01*
G01X57417D02*
X57917Y-254450D01*
G01X59850D02*
X59583Y-254400D01*
X59350Y-254200D01*
X59150Y-253900D01*
X59017Y-253550D01*
X58950Y-253150D01*
Y-252750D01*
X59017Y-252350D01*
X59150Y-252000D01*
X59350Y-251700D01*
X59583Y-251500D01*
X59850Y-251450D01*
X60117Y-251500D01*
X60350Y-251700D01*
X60550Y-252000D01*
X60683Y-252350D01*
X60750Y-252750D01*
Y-253150D01*
X60683Y-253550D01*
X60550Y-253900D01*
X60350Y-254200D01*
X60117Y-254400D01*
X59850Y-254450D01*
G01X61750Y-254050D02*
X62017Y-254300D01*
X62317Y-254450D01*
X62583D01*
X62850Y-254300D01*
X63050Y-254050D01*
X63150Y-253700D01*
X63083Y-253350D01*
X62917Y-253050D01*
X62617Y-252850D01*
X62217Y-252750D01*
X61983Y-252550D01*
X61883Y-252200D01*
X61950Y-251850D01*
X62117Y-251600D01*
X62350Y-251450D01*
X62583D01*
X62817Y-251550D01*
X63017Y-251800D01*
G01X64350Y-254050D02*
X64617Y-254300D01*
X64917Y-254450D01*
X65183D01*
X65450Y-254300D01*
X65650Y-254050D01*
X65750Y-253700D01*
X65683Y-253350D01*
X65517Y-253050D01*
X65217Y-252850D01*
X64817Y-252750D01*
X64583Y-252550D01*
X64483Y-252200D01*
X64550Y-251850D01*
X64717Y-251600D01*
X64950Y-251450D01*
X65183D01*
X65417Y-251550D01*
X65617Y-251800D01*
G01X69550Y-254050D02*
X69817Y-254300D01*
X70117Y-254450D01*
X70383D01*
X70650Y-254300D01*
X70850Y-254050D01*
X70950Y-253700D01*
X70883Y-253350D01*
X70717Y-253050D01*
X70417Y-252850D01*
X70017Y-252750D01*
X69783Y-252550D01*
X69683Y-252200D01*
X69750Y-251850D01*
X69917Y-251600D01*
X70150Y-251450D01*
X70383D01*
X70617Y-251550D01*
X70817Y-251800D01*
G01X73517Y-254450D02*
X72183D01*
Y-251450D01*
X73517D01*
G01X72983Y-252900D02*
X72183D01*
G01X76183Y-251700D02*
X75983Y-251550D01*
X75750Y-251450D01*
X75483D01*
X75183Y-251600D01*
X74950Y-251850D01*
X74783Y-252150D01*
X74650Y-252650D01*
X74617Y-253100D01*
X74683Y-253550D01*
X74783Y-253850D01*
X74983Y-254150D01*
X75217Y-254350D01*
X75450Y-254450D01*
X75683D01*
X75917Y-254350D01*
X76117Y-254200D01*
X76283Y-254000D01*
G01X78050Y-251450D02*
Y-254450D01*
G01X77283Y-251450D02*
X78817D01*
G01X80250D02*
X81050D01*
G01X80650D02*
Y-254450D01*
G01X80250D02*
X81050D01*
G01X83250D02*
X82983Y-254400D01*
X82750Y-254200D01*
X82550Y-253900D01*
X82417Y-253550D01*
X82350Y-253150D01*
Y-252750D01*
X82417Y-252350D01*
X82550Y-252000D01*
X82750Y-251700D01*
X82983Y-251500D01*
X83250Y-251450D01*
X83517Y-251500D01*
X83750Y-251700D01*
X83950Y-252000D01*
X84083Y-252350D01*
X84150Y-252750D01*
Y-253150D01*
X84083Y-253550D01*
X83950Y-253900D01*
X83750Y-254200D01*
X83517Y-254400D01*
X83250Y-254450D01*
G01X85083D02*
Y-251450D01*
X86617Y-254450D01*
Y-251450D01*
G01X91783Y-251700D02*
X91583Y-251550D01*
X91350Y-251450D01*
X91083D01*
X90783Y-251600D01*
X90550Y-251850D01*
X90383Y-252150D01*
X90250Y-252650D01*
X90217Y-253100D01*
X90283Y-253550D01*
X90383Y-253850D01*
X90583Y-254150D01*
X90817Y-254350D01*
X91050Y-254450D01*
X91283D01*
X91517Y-254350D01*
X91717Y-254200D01*
X91883Y-254000D01*
G01X92950Y-254450D02*
Y-251450D01*
G01X94350D02*
Y-254450D01*
G01Y-252950D02*
X92950D01*
G01X95417Y-254450D02*
X96250Y-251450D01*
X97083Y-254450D01*
G01X96783Y-253400D02*
X95717D01*
G01X98183Y-254450D02*
Y-251450D01*
X99017D01*
X99283Y-251600D01*
X99450Y-251800D01*
X99517Y-252200D01*
X99450Y-252600D01*
X99250Y-252850D01*
X99017Y-253000D01*
X98183D01*
G01X99017D02*
X99517Y-254450D01*
G01X101450Y-251450D02*
Y-254450D01*
G01X100683Y-251450D02*
X102217D01*
G01X34150Y-255450D02*
X36150D01*
G01X36750D02*
X38750D01*
G01X39350D02*
X41350D01*
G01X41950D02*
X43950D01*
G01X44550D02*
X46550D01*
G01X47150D02*
X49150D01*
G01X49750D02*
X51750D01*
G01X52350D02*
X54350D01*
G01X54950D02*
X56950D01*
G01X57550D02*
X59550D01*
G01X60150D02*
X62150D01*
G01X62750D02*
X64750D01*
G01X65350D02*
X67350D01*
G01X67950D02*
X69950D01*
G01X70550D02*
X72550D01*
G01X73150D02*
X75150D01*
G01X75750D02*
X77750D01*
G01X78350D02*
X80350D01*
G01X80950D02*
X82950D01*
G01X83550D02*
X85550D01*
G01X86150D02*
X88150D01*
G01X88750D02*
X90750D01*
G01X91350D02*
X93350D01*
G01X93950D02*
X95950D01*
G01X96550D02*
X98550D01*
G01X99150D02*
X101150D01*
G01X101750D02*
X103750D01*
G01X66450Y-35804D02*
X63450D01*
X64050Y-36204D01*
G01X66450D02*
Y-35404D01*
G01X65450Y-33637D02*
Y-32771D01*
G01X63950Y-31237D02*
X63650Y-31037D01*
X63500Y-30804D01*
X63450Y-30537D01*
X63550Y-30204D01*
X63800Y-29971D01*
X64100Y-29904D01*
X64400Y-29937D01*
X64650Y-30071D01*
X65150Y-30737D01*
X65500Y-31037D01*
X66000Y-31237D01*
X66450Y-31304D01*
Y-29904D01*
G01X101883Y-240100D02*
Y-243100D01*
X103217D01*
G01X104517Y-240600D02*
X104717Y-240300D01*
X104950Y-240150D01*
X105217Y-240100D01*
X105550Y-240200D01*
X105783Y-240450D01*
X105850Y-240750D01*
X105817Y-241050D01*
X105683Y-241300D01*
X105017Y-241800D01*
X104717Y-242150D01*
X104517Y-242650D01*
X104450Y-243100D01*
X105850D01*
G01X107750Y-243200D02*
X107683Y-243150D01*
Y-243050D01*
X107750Y-243000D01*
X107817Y-243050D01*
Y-243150D01*
X107750Y-243200D01*
G01Y-241850D02*
X107683Y-241800D01*
Y-241700D01*
X107750Y-241650D01*
X107817Y-241700D01*
Y-241800D01*
X107750Y-241850D01*
G01X113217Y-241500D02*
X113350Y-241350D01*
X113450Y-241100D01*
X113517Y-240750D01*
X113450Y-240450D01*
X113317Y-240250D01*
X113083Y-240100D01*
X112183D01*
Y-243100D01*
X113283D01*
X113517Y-242900D01*
X113650Y-242600D01*
X113717Y-242250D01*
X113650Y-241900D01*
X113450Y-241600D01*
X113217Y-241500D01*
X112183D01*
G01X115550Y-243100D02*
X115283Y-243050D01*
X115050Y-242850D01*
X114850Y-242550D01*
X114717Y-242200D01*
X114650Y-241800D01*
Y-241400D01*
X114717Y-241000D01*
X114850Y-240650D01*
X115050Y-240350D01*
X115283Y-240150D01*
X115550Y-240100D01*
X115817Y-240150D01*
X116050Y-240350D01*
X116250Y-240650D01*
X116383Y-241000D01*
X116450Y-241400D01*
Y-241800D01*
X116383Y-242200D01*
X116250Y-242550D01*
X116050Y-242850D01*
X115817Y-243050D01*
X115550Y-243100D01*
G01X118150Y-240100D02*
Y-243100D01*
G01X117383Y-240100D02*
X118917D01*
G01X120750D02*
Y-243100D01*
G01X119983Y-240100D02*
X121517D01*
G01X123350Y-243100D02*
X123083Y-243050D01*
X122850Y-242850D01*
X122650Y-242550D01*
X122517Y-242200D01*
X122450Y-241800D01*
Y-241400D01*
X122517Y-241000D01*
X122650Y-240650D01*
X122850Y-240350D01*
X123083Y-240150D01*
X123350Y-240100D01*
X123617Y-240150D01*
X123850Y-240350D01*
X124050Y-240650D01*
X124183Y-241000D01*
X124250Y-241400D01*
Y-241800D01*
X124183Y-242200D01*
X124050Y-242550D01*
X123850Y-242850D01*
X123617Y-243050D01*
X123350Y-243100D01*
G01X125083D02*
Y-240100D01*
X125950Y-242600D01*
X126817Y-240100D01*
Y-243100D01*
G01X131883Y-240350D02*
X131683Y-240200D01*
X131450Y-240100D01*
X131183D01*
X130883Y-240250D01*
X130650Y-240500D01*
X130483Y-240800D01*
X130350Y-241300D01*
X130317Y-241750D01*
X130383Y-242200D01*
X130483Y-242500D01*
X130683Y-242800D01*
X130917Y-243000D01*
X131150Y-243100D01*
X131383D01*
X131617Y-243000D01*
X131817Y-242850D01*
X131983Y-242650D01*
G01X133750Y-243100D02*
X133483Y-243050D01*
X133250Y-242850D01*
X133050Y-242550D01*
X132917Y-242200D01*
X132850Y-241800D01*
Y-241400D01*
X132917Y-241000D01*
X133050Y-240650D01*
X133250Y-240350D01*
X133483Y-240150D01*
X133750Y-240100D01*
X134017Y-240150D01*
X134250Y-240350D01*
X134450Y-240650D01*
X134583Y-241000D01*
X134650Y-241400D01*
Y-241800D01*
X134583Y-242200D01*
X134450Y-242550D01*
X134250Y-242850D01*
X134017Y-243050D01*
X133750Y-243100D01*
G01X135583D02*
Y-240100D01*
X137117Y-243100D01*
Y-240100D01*
G01X138217Y-243100D02*
Y-240100D01*
X138883D01*
X139150Y-240250D01*
X139350Y-240450D01*
X139517Y-240750D01*
X139650Y-241100D01*
X139683Y-241600D01*
X139650Y-242100D01*
X139517Y-242450D01*
X139350Y-242750D01*
X139150Y-242950D01*
X138883Y-243100D01*
X138217D01*
G01X140817Y-240100D02*
Y-242250D01*
X140950Y-242700D01*
X141217Y-243000D01*
X141550Y-243100D01*
X141883Y-243000D01*
X142150Y-242700D01*
X142283Y-242250D01*
Y-240100D01*
G01X144883Y-240350D02*
X144683Y-240200D01*
X144450Y-240100D01*
X144183D01*
X143883Y-240250D01*
X143650Y-240500D01*
X143483Y-240800D01*
X143350Y-241300D01*
X143317Y-241750D01*
X143383Y-242200D01*
X143483Y-242500D01*
X143683Y-242800D01*
X143917Y-243000D01*
X144150Y-243100D01*
X144383D01*
X144617Y-243000D01*
X144817Y-242850D01*
X144983Y-242650D01*
G01X146750Y-240100D02*
Y-243100D01*
G01X145983Y-240100D02*
X147517D01*
G01X149350Y-243100D02*
X149083Y-243050D01*
X148850Y-242850D01*
X148650Y-242550D01*
X148517Y-242200D01*
X148450Y-241800D01*
Y-241400D01*
X148517Y-241000D01*
X148650Y-240650D01*
X148850Y-240350D01*
X149083Y-240150D01*
X149350Y-240100D01*
X149617Y-240150D01*
X149850Y-240350D01*
X150050Y-240650D01*
X150183Y-241000D01*
X150250Y-241400D01*
Y-241800D01*
X150183Y-242200D01*
X150050Y-242550D01*
X149850Y-242850D01*
X149617Y-243050D01*
X149350Y-243100D01*
G01X151283D02*
Y-240100D01*
X152117D01*
X152383Y-240250D01*
X152550Y-240450D01*
X152617Y-240850D01*
X152550Y-241250D01*
X152350Y-241500D01*
X152117Y-241650D01*
X151283D01*
G01X152117D02*
X152617Y-243100D01*
G01X156717Y-242100D02*
X157583D01*
G01X163083Y-240350D02*
X162883Y-240200D01*
X162650Y-240100D01*
X162383D01*
X162083Y-240250D01*
X161850Y-240500D01*
X161683Y-240800D01*
X161550Y-241300D01*
X161517Y-241750D01*
X161583Y-242200D01*
X161683Y-242500D01*
X161883Y-242800D01*
X162117Y-243000D01*
X162350Y-243100D01*
X162583D01*
X162817Y-243000D01*
X163017Y-242850D01*
X163183Y-242650D01*
G01X164950Y-243100D02*
X164683Y-243050D01*
X164450Y-242850D01*
X164250Y-242550D01*
X164117Y-242200D01*
X164050Y-241800D01*
Y-241400D01*
X164117Y-241000D01*
X164250Y-240650D01*
X164450Y-240350D01*
X164683Y-240150D01*
X164950Y-240100D01*
X165217Y-240150D01*
X165450Y-240350D01*
X165650Y-240650D01*
X165783Y-241000D01*
X165850Y-241400D01*
Y-241800D01*
X165783Y-242200D01*
X165650Y-242550D01*
X165450Y-242850D01*
X165217Y-243050D01*
X164950Y-243100D01*
G01X166883D02*
Y-240100D01*
X167683D01*
X167950Y-240250D01*
X168150Y-240600D01*
X168217Y-241000D01*
X168150Y-241400D01*
X167983Y-241700D01*
X167683Y-241850D01*
X166883D01*
G01X169483Y-243100D02*
Y-240100D01*
X170283D01*
X170550Y-240250D01*
X170750Y-240600D01*
X170817Y-241000D01*
X170750Y-241400D01*
X170583Y-241700D01*
X170283Y-241850D01*
X169483D01*
G01X173417Y-243100D02*
X172083D01*
Y-240100D01*
X173417D01*
G01X172883Y-241550D02*
X172083D01*
G01X174683Y-243100D02*
Y-240100D01*
X175517D01*
X175783Y-240250D01*
X175950Y-240450D01*
X176017Y-240850D01*
X175950Y-241250D01*
X175750Y-241500D01*
X175517Y-241650D01*
X174683D01*
G01X175517D02*
X176017Y-243100D01*
G01X180550Y-240100D02*
X180283Y-240200D01*
X180083Y-240450D01*
X179950Y-240750D01*
X179850Y-241150D01*
X179817Y-241600D01*
X179850Y-242050D01*
X179950Y-242450D01*
X180083Y-242750D01*
X180283Y-243000D01*
X180550Y-243100D01*
X180817Y-243000D01*
X181017Y-242750D01*
X181150Y-242450D01*
X181250Y-242050D01*
X181283Y-241600D01*
X181250Y-241150D01*
X181150Y-240750D01*
X181017Y-240450D01*
X180817Y-240200D01*
X180550Y-240100D01*
G01X183150Y-243200D02*
X183083Y-243150D01*
Y-243050D01*
X183150Y-243000D01*
X183217Y-243050D01*
Y-243150D01*
X183150Y-243200D01*
G01X185683Y-243100D02*
X185750Y-242450D01*
X185850Y-241900D01*
X185983Y-241400D01*
X186150Y-240850D01*
X186417Y-240100D01*
X185083D01*
G01X188350Y-243100D02*
Y-240100D01*
X187950Y-240700D01*
G01Y-243100D02*
X188750D01*
G01X192683D02*
Y-240100D01*
X193550Y-242600D01*
X194417Y-240100D01*
Y-243100D01*
G01X195750Y-240100D02*
X196550D01*
G01X196150D02*
Y-243100D01*
G01X195750D02*
X196550D01*
G01X198083Y-240100D02*
Y-243100D01*
X199417D01*
G01X107017Y-247200D02*
X108483Y-245000D01*
G01X107750Y-244600D02*
Y-247600D01*
G01X108483Y-247200D02*
X107017Y-245000D01*
G01X106750Y-246100D02*
X108750D01*
G01X114850Y-246700D02*
X115117Y-246950D01*
X115417Y-247100D01*
X115683D01*
X115950Y-246950D01*
X116150Y-246700D01*
X116250Y-246350D01*
X116183Y-246000D01*
X116017Y-245700D01*
X115717Y-245500D01*
X115317Y-245400D01*
X115083Y-245200D01*
X114983Y-244850D01*
X115050Y-244500D01*
X115217Y-244250D01*
X115450Y-244100D01*
X115683D01*
X115917Y-244200D01*
X116117Y-244450D01*
G01X117417Y-244100D02*
Y-246250D01*
X117550Y-246700D01*
X117817Y-247000D01*
X118150Y-247100D01*
X118483Y-247000D01*
X118750Y-246700D01*
X118883Y-246250D01*
Y-244100D01*
G01X120083Y-247100D02*
Y-244100D01*
X120917D01*
X121183Y-244250D01*
X121350Y-244450D01*
X121417Y-244850D01*
X121350Y-245250D01*
X121150Y-245500D01*
X120917Y-245650D01*
X120083D01*
G01X120917D02*
X121417Y-247100D01*
G01X122717D02*
Y-244100D01*
X123983D01*
G01X123517Y-245550D02*
X122717D01*
G01X125117Y-247100D02*
X125950Y-244100D01*
X126783Y-247100D01*
G01X126483Y-246050D02*
X125417D01*
G01X129283Y-244350D02*
X129083Y-244200D01*
X128850Y-244100D01*
X128583D01*
X128283Y-244250D01*
X128050Y-244500D01*
X127883Y-244800D01*
X127750Y-245300D01*
X127717Y-245750D01*
X127783Y-246200D01*
X127883Y-246500D01*
X128083Y-246800D01*
X128317Y-247000D01*
X128550Y-247100D01*
X128783D01*
X129017Y-247000D01*
X129217Y-246850D01*
X129383Y-246650D01*
G01X131817Y-247100D02*
X130483D01*
Y-244100D01*
X131817D01*
G01X131283Y-245550D02*
X130483D01*
G01X135917Y-246100D02*
X136783D01*
G01X140717Y-247100D02*
X141550Y-244100D01*
X142383Y-247100D01*
G01X142083Y-246050D02*
X141017D01*
G01X143750Y-244100D02*
X144550D01*
G01X144150D02*
Y-247100D01*
G01X143750D02*
X144550D01*
G01X146083D02*
Y-244100D01*
X146917D01*
X147183Y-244250D01*
X147350Y-244450D01*
X147417Y-244850D01*
X147350Y-245250D01*
X147150Y-245500D01*
X146917Y-245650D01*
X146083D01*
G01X146917D02*
X147417Y-247100D01*
G01X151950Y-244100D02*
X151683Y-244200D01*
X151483Y-244450D01*
X151350Y-244750D01*
X151250Y-245150D01*
X151217Y-245600D01*
X151250Y-246050D01*
X151350Y-246450D01*
X151483Y-246750D01*
X151683Y-247000D01*
X151950Y-247100D01*
X152217Y-247000D01*
X152417Y-246750D01*
X152550Y-246450D01*
X152650Y-246050D01*
X152683Y-245600D01*
X152650Y-245150D01*
X152550Y-244750D01*
X152417Y-244450D01*
X152217Y-244200D01*
X151950Y-244100D01*
G01X156283Y-247100D02*
Y-244100D01*
X157150Y-246600D01*
X158017Y-244100D01*
Y-247100D01*
G01X159350Y-244100D02*
X160150D01*
G01X159750D02*
Y-247100D01*
G01X159350D02*
X160150D01*
G01X161683Y-244100D02*
Y-247100D01*
X163017D01*
G01X107017Y-140688D02*
X108483Y-138488D01*
G01X107750Y-138088D02*
Y-141088D01*
G01X108483Y-140688D02*
X107017Y-138488D01*
G01X106750Y-139588D02*
X108750D01*
G01X114817Y-140588D02*
Y-137588D01*
X115483D01*
X115750Y-137738D01*
X115950Y-137938D01*
X116117Y-138238D01*
X116250Y-138588D01*
X116283Y-139088D01*
X116250Y-139588D01*
X116117Y-139938D01*
X115950Y-140238D01*
X115750Y-140438D01*
X115483Y-140588D01*
X114817D01*
G01X117750Y-137588D02*
X118550D01*
G01X118150D02*
Y-140588D01*
G01X117750D02*
X118550D01*
G01X121417D02*
X120083D01*
Y-137588D01*
X121417D01*
G01X120883Y-139038D02*
X120083D01*
G01X122683Y-137588D02*
Y-140588D01*
X124017D01*
G01X126617D02*
X125283D01*
Y-137588D01*
X126617D01*
G01X126083Y-139038D02*
X125283D01*
G01X129283Y-137838D02*
X129083Y-137688D01*
X128850Y-137588D01*
X128583D01*
X128283Y-137738D01*
X128050Y-137988D01*
X127883Y-138288D01*
X127750Y-138788D01*
X127717Y-139238D01*
X127783Y-139688D01*
X127883Y-139988D01*
X128083Y-140288D01*
X128317Y-140488D01*
X128550Y-140588D01*
X128783D01*
X129017Y-140488D01*
X129217Y-140338D01*
X129383Y-140138D01*
G01X131150Y-137588D02*
Y-140588D01*
G01X130383Y-137588D02*
X131917D01*
G01X133083Y-140588D02*
Y-137588D01*
X133917D01*
X134183Y-137738D01*
X134350Y-137938D01*
X134417Y-138338D01*
X134350Y-138738D01*
X134150Y-138988D01*
X133917Y-139138D01*
X133083D01*
G01X133917D02*
X134417Y-140588D01*
G01X135950Y-137588D02*
X136750D01*
G01X136350D02*
Y-140588D01*
G01X135950D02*
X136750D01*
G01X139683Y-137838D02*
X139483Y-137688D01*
X139250Y-137588D01*
X138983D01*
X138683Y-137738D01*
X138450Y-137988D01*
X138283Y-138288D01*
X138150Y-138788D01*
X138117Y-139238D01*
X138183Y-139688D01*
X138283Y-139988D01*
X138483Y-140288D01*
X138717Y-140488D01*
X138950Y-140588D01*
X139183D01*
X139417Y-140488D01*
X139617Y-140338D01*
X139783Y-140138D01*
G01X143717Y-139588D02*
X144583D01*
G01X148717Y-140588D02*
Y-137588D01*
X149983D01*
G01X149517Y-139038D02*
X148717D01*
G01X151283Y-140588D02*
Y-137588D01*
X152117D01*
X152383Y-137738D01*
X152550Y-137938D01*
X152617Y-138338D01*
X152550Y-138738D01*
X152350Y-138988D01*
X152117Y-139138D01*
X151283D01*
G01X152117D02*
X152617Y-140588D01*
G01X154117Y-139588D02*
X154983D01*
G01X157550Y-140588D02*
Y-137588D01*
X156317Y-139738D01*
X157983D01*
G01X161717Y-139338D02*
X161950Y-138988D01*
X162150Y-138788D01*
X162417Y-138688D01*
X162650Y-138788D01*
X162817Y-138988D01*
X162950Y-139288D01*
X162983Y-139638D01*
X162950Y-139938D01*
X162817Y-140238D01*
X162617Y-140488D01*
X162383Y-140588D01*
X162117Y-140488D01*
X161883Y-140188D01*
X161750Y-139738D01*
X161717Y-139238D01*
X161783Y-138588D01*
X161883Y-138238D01*
X162050Y-137888D01*
X162283Y-137638D01*
X162517Y-137588D01*
X162750Y-137688D01*
X162917Y-137938D01*
G01X164950Y-140588D02*
Y-137588D01*
X164550Y-138188D01*
G01Y-140588D02*
X165350D01*
G01X167550Y-140688D02*
X167483Y-140638D01*
Y-140538D01*
X167550Y-140488D01*
X167617Y-140538D01*
Y-140638D01*
X167550Y-140688D01*
G01X169417Y-140138D02*
X169617Y-140388D01*
X169850Y-140538D01*
X170150Y-140588D01*
X170450Y-140488D01*
X170683Y-140288D01*
X170850Y-139938D01*
X170883Y-139538D01*
X170817Y-139138D01*
X170650Y-138888D01*
X170417Y-138688D01*
X170183Y-138638D01*
X169950Y-138688D01*
X169650Y-138888D01*
X169750Y-137588D01*
X170650D01*
G01X172683Y-140588D02*
X172750Y-139938D01*
X172850Y-139388D01*
X172983Y-138888D01*
X173150Y-138338D01*
X173417Y-137588D01*
X172083D01*
G01X177083Y-140588D02*
Y-137588D01*
X177950Y-140088D01*
X178817Y-137588D01*
Y-140588D01*
G01X180150Y-137588D02*
X180950D01*
G01X180550D02*
Y-140588D01*
G01X180150D02*
X180950D01*
G01X182483Y-137588D02*
Y-140588D01*
X183817D01*
G01X107017Y-38904D02*
X108483Y-36704D01*
G01X107750Y-36304D02*
Y-39304D01*
G01X108483Y-38904D02*
X107017Y-36704D01*
G01X106750Y-37804D02*
X108750D01*
G01X114850Y-38404D02*
X115117Y-38654D01*
X115417Y-38804D01*
X115683D01*
X115950Y-38654D01*
X116150Y-38404D01*
X116250Y-38054D01*
X116183Y-37704D01*
X116017Y-37404D01*
X115717Y-37204D01*
X115317Y-37104D01*
X115083Y-36904D01*
X114983Y-36554D01*
X115050Y-36204D01*
X115217Y-35954D01*
X115450Y-35804D01*
X115683D01*
X115917Y-35904D01*
X116117Y-36154D01*
G01X117417Y-35804D02*
Y-37954D01*
X117550Y-38404D01*
X117817Y-38704D01*
X118150Y-38804D01*
X118483Y-38704D01*
X118750Y-38404D01*
X118883Y-37954D01*
Y-35804D01*
G01X120083Y-38804D02*
Y-35804D01*
X120917D01*
X121183Y-35954D01*
X121350Y-36154D01*
X121417Y-36554D01*
X121350Y-36954D01*
X121150Y-37204D01*
X120917Y-37354D01*
X120083D01*
G01X120917D02*
X121417Y-38804D01*
G01X122717D02*
Y-35804D01*
X123983D01*
G01X123517Y-37254D02*
X122717D01*
G01X125117Y-38804D02*
X125950Y-35804D01*
X126783Y-38804D01*
G01X126483Y-37754D02*
X125417D01*
G01X129283Y-36054D02*
X129083Y-35904D01*
X128850Y-35804D01*
X128583D01*
X128283Y-35954D01*
X128050Y-36204D01*
X127883Y-36504D01*
X127750Y-37004D01*
X127717Y-37454D01*
X127783Y-37904D01*
X127883Y-38204D01*
X128083Y-38504D01*
X128317Y-38704D01*
X128550Y-38804D01*
X128783D01*
X129017Y-38704D01*
X129217Y-38554D01*
X129383Y-38354D01*
G01X131817Y-38804D02*
X130483D01*
Y-35804D01*
X131817D01*
G01X131283Y-37254D02*
X130483D01*
G01X135917Y-37804D02*
X136783D01*
G01X140717Y-38804D02*
X141550Y-35804D01*
X142383Y-38804D01*
G01X142083Y-37754D02*
X141017D01*
G01X143750Y-35804D02*
X144550D01*
G01X144150D02*
Y-38804D01*
G01X143750D02*
X144550D01*
G01X146083D02*
Y-35804D01*
X146917D01*
X147183Y-35954D01*
X147350Y-36154D01*
X147417Y-36554D01*
X147350Y-36954D01*
X147150Y-37204D01*
X146917Y-37354D01*
X146083D01*
G01X146917D02*
X147417Y-38804D01*
G01X151950Y-35804D02*
X151683Y-35904D01*
X151483Y-36154D01*
X151350Y-36454D01*
X151250Y-36854D01*
X151217Y-37304D01*
X151250Y-37754D01*
X151350Y-38154D01*
X151483Y-38454D01*
X151683Y-38704D01*
X151950Y-38804D01*
X152217Y-38704D01*
X152417Y-38454D01*
X152550Y-38154D01*
X152650Y-37754D01*
X152683Y-37304D01*
X152650Y-36854D01*
X152550Y-36454D01*
X152417Y-36154D01*
X152217Y-35904D01*
X151950Y-35804D01*
G01X156283Y-38804D02*
Y-35804D01*
X157150Y-38304D01*
X158017Y-35804D01*
Y-38804D01*
G01X159350Y-35804D02*
X160150D01*
G01X159750D02*
Y-38804D01*
G01X159350D02*
X160150D01*
G01X161683Y-35804D02*
Y-38804D01*
X163017D01*
G01X101883Y-40804D02*
Y-43804D01*
X103217D01*
G01X105150D02*
Y-40804D01*
X104750Y-41404D01*
G01Y-43804D02*
X105550D01*
G01X107750Y-43904D02*
X107683Y-43854D01*
Y-43754D01*
X107750Y-43704D01*
X107817Y-43754D01*
Y-43854D01*
X107750Y-43904D01*
G01Y-42554D02*
X107683Y-42504D01*
Y-42404D01*
X107750Y-42354D01*
X107817Y-42404D01*
Y-42504D01*
X107750Y-42554D01*
G01X112950Y-40804D02*
Y-43804D01*
G01X112183Y-40804D02*
X113717D01*
G01X115550Y-43804D02*
X115283Y-43754D01*
X115050Y-43554D01*
X114850Y-43254D01*
X114717Y-42904D01*
X114650Y-42504D01*
Y-42104D01*
X114717Y-41704D01*
X114850Y-41354D01*
X115050Y-41054D01*
X115283Y-40854D01*
X115550Y-40804D01*
X115817Y-40854D01*
X116050Y-41054D01*
X116250Y-41354D01*
X116383Y-41704D01*
X116450Y-42104D01*
Y-42504D01*
X116383Y-42904D01*
X116250Y-43254D01*
X116050Y-43554D01*
X115817Y-43754D01*
X115550Y-43804D01*
G01X117483D02*
Y-40804D01*
X118283D01*
X118550Y-40954D01*
X118750Y-41304D01*
X118817Y-41704D01*
X118750Y-42104D01*
X118583Y-42404D01*
X118283Y-42554D01*
X117483D01*
G01X124083Y-41054D02*
X123883Y-40904D01*
X123650Y-40804D01*
X123383D01*
X123083Y-40954D01*
X122850Y-41204D01*
X122683Y-41504D01*
X122550Y-42004D01*
X122517Y-42454D01*
X122583Y-42904D01*
X122683Y-43204D01*
X122883Y-43504D01*
X123117Y-43704D01*
X123350Y-43804D01*
X123583D01*
X123817Y-43704D01*
X124017Y-43554D01*
X124183Y-43354D01*
G01X125950Y-43804D02*
X125683Y-43754D01*
X125450Y-43554D01*
X125250Y-43254D01*
X125117Y-42904D01*
X125050Y-42504D01*
Y-42104D01*
X125117Y-41704D01*
X125250Y-41354D01*
X125450Y-41054D01*
X125683Y-40854D01*
X125950Y-40804D01*
X126217Y-40854D01*
X126450Y-41054D01*
X126650Y-41354D01*
X126783Y-41704D01*
X126850Y-42104D01*
Y-42504D01*
X126783Y-42904D01*
X126650Y-43254D01*
X126450Y-43554D01*
X126217Y-43754D01*
X125950Y-43804D01*
G01X127783D02*
Y-40804D01*
X129317Y-43804D01*
Y-40804D01*
G01X130417Y-43804D02*
Y-40804D01*
X131083D01*
X131350Y-40954D01*
X131550Y-41154D01*
X131717Y-41454D01*
X131850Y-41804D01*
X131883Y-42304D01*
X131850Y-42804D01*
X131717Y-43154D01*
X131550Y-43454D01*
X131350Y-43654D01*
X131083Y-43804D01*
X130417D01*
G01X133017Y-40804D02*
Y-42954D01*
X133150Y-43404D01*
X133417Y-43704D01*
X133750Y-43804D01*
X134083Y-43704D01*
X134350Y-43404D01*
X134483Y-42954D01*
Y-40804D01*
G01X137083Y-41054D02*
X136883Y-40904D01*
X136650Y-40804D01*
X136383D01*
X136083Y-40954D01*
X135850Y-41204D01*
X135683Y-41504D01*
X135550Y-42004D01*
X135517Y-42454D01*
X135583Y-42904D01*
X135683Y-43204D01*
X135883Y-43504D01*
X136117Y-43704D01*
X136350Y-43804D01*
X136583D01*
X136817Y-43704D01*
X137017Y-43554D01*
X137183Y-43354D01*
G01X138950Y-40804D02*
Y-43804D01*
G01X138183Y-40804D02*
X139717D01*
G01X141550Y-43804D02*
X141283Y-43754D01*
X141050Y-43554D01*
X140850Y-43254D01*
X140717Y-42904D01*
X140650Y-42504D01*
Y-42104D01*
X140717Y-41704D01*
X140850Y-41354D01*
X141050Y-41054D01*
X141283Y-40854D01*
X141550Y-40804D01*
X141817Y-40854D01*
X142050Y-41054D01*
X142250Y-41354D01*
X142383Y-41704D01*
X142450Y-42104D01*
Y-42504D01*
X142383Y-42904D01*
X142250Y-43254D01*
X142050Y-43554D01*
X141817Y-43754D01*
X141550Y-43804D01*
G01X143483D02*
Y-40804D01*
X144317D01*
X144583Y-40954D01*
X144750Y-41154D01*
X144817Y-41554D01*
X144750Y-41954D01*
X144550Y-42204D01*
X144317Y-42354D01*
X143483D01*
G01X144317D02*
X144817Y-43804D01*
G01X148917Y-42804D02*
X149783D01*
G01X155283Y-41054D02*
X155083Y-40904D01*
X154850Y-40804D01*
X154583D01*
X154283Y-40954D01*
X154050Y-41204D01*
X153883Y-41504D01*
X153750Y-42004D01*
X153717Y-42454D01*
X153783Y-42904D01*
X153883Y-43204D01*
X154083Y-43504D01*
X154317Y-43704D01*
X154550Y-43804D01*
X154783D01*
X155017Y-43704D01*
X155217Y-43554D01*
X155383Y-43354D01*
G01X157150Y-43804D02*
X156883Y-43754D01*
X156650Y-43554D01*
X156450Y-43254D01*
X156317Y-42904D01*
X156250Y-42504D01*
Y-42104D01*
X156317Y-41704D01*
X156450Y-41354D01*
X156650Y-41054D01*
X156883Y-40854D01*
X157150Y-40804D01*
X157417Y-40854D01*
X157650Y-41054D01*
X157850Y-41354D01*
X157983Y-41704D01*
X158050Y-42104D01*
Y-42504D01*
X157983Y-42904D01*
X157850Y-43254D01*
X157650Y-43554D01*
X157417Y-43754D01*
X157150Y-43804D01*
G01X159083D02*
Y-40804D01*
X159883D01*
X160150Y-40954D01*
X160350Y-41304D01*
X160417Y-41704D01*
X160350Y-42104D01*
X160183Y-42404D01*
X159883Y-42554D01*
X159083D01*
G01X161683Y-43804D02*
Y-40804D01*
X162483D01*
X162750Y-40954D01*
X162950Y-41304D01*
X163017Y-41704D01*
X162950Y-42104D01*
X162783Y-42404D01*
X162483Y-42554D01*
X161683D01*
G01X165617Y-43804D02*
X164283D01*
Y-40804D01*
X165617D01*
G01X165083Y-42254D02*
X164283D01*
G01X166883Y-43804D02*
Y-40804D01*
X167717D01*
X167983Y-40954D01*
X168150Y-41154D01*
X168217Y-41554D01*
X168150Y-41954D01*
X167950Y-42204D01*
X167717Y-42354D01*
X166883D01*
G01X167717D02*
X168217Y-43804D01*
G01X172750Y-40804D02*
X172483Y-40904D01*
X172283Y-41154D01*
X172150Y-41454D01*
X172050Y-41854D01*
X172017Y-42304D01*
X172050Y-42754D01*
X172150Y-43154D01*
X172283Y-43454D01*
X172483Y-43704D01*
X172750Y-43804D01*
X173017Y-43704D01*
X173217Y-43454D01*
X173350Y-43154D01*
X173450Y-42754D01*
X173483Y-42304D01*
X173450Y-41854D01*
X173350Y-41454D01*
X173217Y-41154D01*
X173017Y-40904D01*
X172750Y-40804D01*
G01X175350Y-43904D02*
X175283Y-43854D01*
Y-43754D01*
X175350Y-43704D01*
X175417Y-43754D01*
Y-43854D01*
X175350Y-43904D01*
G01X177883Y-43804D02*
X177950Y-43154D01*
X178050Y-42604D01*
X178183Y-42104D01*
X178350Y-41554D01*
X178617Y-40804D01*
X177283D01*
G01X180550Y-43804D02*
Y-40804D01*
X180150Y-41404D01*
G01Y-43804D02*
X180950D01*
G01X184883D02*
Y-40804D01*
X185750Y-43304D01*
X186617Y-40804D01*
Y-43804D01*
G01X187950Y-40804D02*
X188750D01*
G01X188350D02*
Y-43804D01*
G01X187950D02*
X188750D01*
G01X190283Y-40804D02*
Y-43804D01*
X191617D01*
M02*
