G04 ================== begin FILE IDENTIFICATION RECORD ==================*
G04 Layout Name:  D:/Facultate/proiecte/p1/2024/pcb21/STAB_TST_10/allegro/LAYOUT.brd*
G04 Film Name:    SPTOP*
G04 File Format:  Gerber RS274X*
G04 File Origin:  Cadence Allegro 16.6-P004*
G04 Origin Date:  Sat Dec 14 00:08:24 2024*
G04 *
G04 Layer:  VIA CLASS/PASTEMASK_TOP*
G04 Layer:  PIN/PASTEMASK_TOP*
G04 Layer:  DRC ERROR CLASS/PASTEMASK_TOP*
G04 *
G04 Offset:    (0.00 0.00)*
G04 Mirror:    No*
G04 Mode:      Positive*
G04 Rotation:  0*
G04 FullContactRelief:  No*
G04 UndefLineWidth:     0.00*
G04 ================== end FILE IDENTIFICATION RECORD ====================*
%FSLAX25Y25*MOIN*%
%IR0*IPPOS*OFA0.00000B0.00000*MIA0B0*SFA1.00000B1.00000*%
%ADD16R,.072X.117*%
%ADD12R,.072X.108*%
%ADD17R,.107X.056*%
%ADD10C,.036*%
%ADD11R,.045X.045*%
%ADD18R,.046X.046*%
%ADD15R,.222X.206*%
%ADD14R,.033X.045*%
%ADD13R,.045X.033*%
%ADD19R,.046X.071*%
%ADD20R,.069X.044*%
%LPD*%
G75*
G54D10*
X20000Y20000D03*
X137500Y137500D03*
G54D20*
X121400Y67900D03*
Y60000D03*
X135600D03*
Y67900D03*
G54D11*
X15700Y33400D03*
Y56000D03*
Y79300D03*
X24100Y33400D03*
X42900D03*
X51300D03*
X24100Y56000D03*
Y79300D03*
X52200Y120400D03*
Y128800D03*
X39700D03*
Y120400D03*
X72000Y9300D03*
X80400D03*
X72000Y34700D03*
X80400D03*
Y22100D03*
X72000D03*
X75900Y120400D03*
Y128800D03*
X63900D03*
Y120400D03*
X99600Y48200D03*
X108000D03*
Y78900D03*
X99600D03*
X98200Y120400D03*
Y128800D03*
X87200Y120400D03*
Y128800D03*
X96900Y144200D03*
X88500D03*
X138600Y36600D03*
X125700D03*
X138600Y45000D03*
X125700D03*
G54D12*
X50700Y15600D03*
X60700D03*
X109200Y144200D03*
X119200D03*
G54D13*
X44900Y63700D03*
Y56000D03*
X52900Y59900D03*
X70600Y71100D03*
X76900Y57600D03*
X68400Y44500D03*
Y52200D03*
X60400Y48300D03*
X70600Y78800D03*
X62600Y74900D03*
X84900Y53800D03*
Y61500D03*
X108000Y60000D03*
Y67700D03*
X100000Y63800D03*
X123100Y111900D03*
Y119600D03*
X115100Y115700D03*
G54D14*
X48700Y82900D03*
X41000D03*
X44900Y74900D03*
X126300Y93700D03*
X134000D03*
X130100Y101700D03*
G54D15*
X69893Y99976D03*
G54D16*
X97000Y17200D03*
G54D17*
X98200Y91000D03*
Y108992D03*
G54D18*
X138600Y12745D03*
Y21800D03*
G54D19*
X116356Y17272D03*
M02*
