G04 ================== begin FILE IDENTIFICATION RECORD ==================*
G04 Layout Name:  D:/Facultate/proiecte/p1/2024/pcb21/STAB_TST_10/allegro/LAYOUT.brd*
G04 Film Name:    TOP*
G04 File Format:  Gerber RS274X*
G04 File Origin:  Cadence Allegro 16.6-P004*
G04 Origin Date:  Sat Dec 14 00:08:24 2024*
G04 *
G04 Layer:  ETCH/TOP*
G04 Layer:  PIN/TOP*
G04 Layer:  VIA CLASS/TOP*
G04 *
G04 Offset:    (0.00 0.00)*
G04 Mirror:    No*
G04 Mode:      Positive*
G04 Rotation:  0*
G04 FullContactRelief:  No*
G04 UndefLineWidth:     0.00*
G04 ================== end FILE IDENTIFICATION RECORD ====================*
%FSLAX25Y25*MOIN*%
%IR0*IPPOS*OFA0.00000B0.00000*MIA0B0*SFA1.00000B1.00000*%
%ADD12R,.08X.12*%
%ADD13C,.03*%
%ADD10C,.04*%
%ADD11R,.05X.05*%
%ADD18R,.05118X.05118*%
%ADD17R,.11811X.06299*%
%ADD15R,.036X.05*%
%ADD14R,.05X.036*%
%ADD20R,.076X.048*%
%ADD16R,.24409X.22835*%
%ADD19R,.05118X.07874*%
%ADD21C,.018*%
%ADD22C,.07878*%
%ADD23R,.07804X.07804*%
G75*
%LPD*%
G75*
G36*
G01X4300Y4500D02*
Y153300D01*
X153200D01*
Y4500D01*
X4300D01*
G37*
%LPC*%
G75*
G36*
G01X43602Y126498D02*
Y124898D01*
X35798D01*
Y132702D01*
X43602D01*
Y131102D01*
X48298D01*
Y132702D01*
X56102D01*
Y124898D01*
X48298D01*
Y126498D01*
X43602D01*
G37*
G36*
G01X56102Y118098D02*
Y116498D01*
X48298D01*
Y124302D01*
X56102D01*
Y122702D01*
X59998D01*
Y124302D01*
X67802D01*
Y116498D01*
X59998D01*
Y118098D01*
X56102D01*
G37*
G36*
G01X42002Y116498D02*
Y112968D01*
G02X37398I-2302J-1768D01*
G01Y116498D01*
X35798D01*
Y124302D01*
X43602D01*
Y116498D01*
X42002D01*
G37*
G36*
G01X129602Y42698D02*
Y41098D01*
X121798D01*
Y48902D01*
X129602D01*
Y47302D01*
X134698D01*
Y48902D01*
X142502D01*
Y41098D01*
X134698D01*
Y42698D01*
X129602D01*
G37*
G36*
G01X84302Y26002D02*
Y18198D01*
X76498D01*
Y26002D01*
X78098D01*
Y30798D01*
X76498D01*
Y38602D01*
X84302D01*
Y30798D01*
X82702D01*
Y26002D01*
X84302D01*
G37*
G36*
G01X142560Y25760D02*
Y17840D01*
X134640D01*
Y25760D01*
X136298D01*
Y32698D01*
X134698D01*
Y40502D01*
X142502D01*
Y32698D01*
X140902D01*
Y25760D01*
X142560D01*
G37*
G36*
G01Y10444D02*
Y8784D01*
X134640D01*
Y16706D01*
X142560D01*
Y15046D01*
X144287D01*
G02Y10444I1768J-2301D01*
G01X142560D01*
G37*
G36*
G01X75902Y13202D02*
Y5398D01*
X68098D01*
Y13202D01*
X69698D01*
Y18198D01*
X68098D01*
Y26002D01*
X75902D01*
Y18198D01*
X74302D01*
Y13202D01*
X75902D01*
G37*
G36*
G01X105507Y104441D02*
X90893D01*
Y113543D01*
X95898D01*
Y116498D01*
X94298D01*
Y118098D01*
X91102D01*
Y116498D01*
X83298D01*
Y118098D01*
X79802D01*
Y116498D01*
X71998D01*
Y124302D01*
X79802D01*
Y122702D01*
X83298D01*
Y124302D01*
X91102D01*
Y122702D01*
X94298D01*
Y124302D01*
X102102D01*
Y116498D01*
X100502D01*
Y113543D01*
X105507D01*
Y111294D01*
X115339D01*
X115861Y111816D01*
G03X115578Y112498I-283J282D01*
G01X111198D01*
Y118902D01*
X111478D01*
G03X111761Y119584I0J400D01*
G01X111447Y119898D01*
X108268D01*
G02Y124502I-1768J2302D01*
G01X113353D01*
X117302Y120553D01*
Y118902D01*
X119198D01*
Y122802D01*
X120798D01*
Y123547D01*
X117847Y126498D01*
X102102D01*
Y124898D01*
X94298D01*
Y126498D01*
X91102D01*
Y124898D01*
X83298D01*
Y126498D01*
X79802D01*
Y124898D01*
X71998D01*
Y126498D01*
X67802D01*
Y124898D01*
X59998D01*
Y132702D01*
X67802D01*
Y131102D01*
X71998D01*
Y132702D01*
X79802D01*
Y131102D01*
X83298D01*
Y132702D01*
X91102D01*
Y131102D01*
X94298D01*
Y132702D01*
X95898D01*
Y137147D01*
X94598Y138447D01*
Y140298D01*
X92998D01*
Y148102D01*
X100802D01*
Y146502D01*
X103798D01*
Y151602D01*
X124602D01*
Y136798D01*
X103798D01*
Y141898D01*
X100802D01*
Y140298D01*
X100222D01*
G03X99939Y139616I0J-400D01*
G01X100502Y139053D01*
Y132702D01*
X102102D01*
Y131102D01*
X119753D01*
X125402Y125453D01*
Y122802D01*
X127002D01*
Y116398D01*
X119002D01*
Y115102D01*
X127002D01*
Y108698D01*
X119253D01*
X117245Y106690D01*
X105507D01*
Y104441D01*
G37*
G36*
G01X66102Y8198D02*
X45298D01*
Y13298D01*
X39868D01*
G02X36332I-1768J2302D01*
G01X31247D01*
X24608Y19938D01*
G03X23926Y19687I-283J-283D01*
G02X19687Y23926I-3926J313D01*
G03X19938Y24608I-32J399D01*
G01X19847Y24698D01*
X16347D01*
X13398Y27647D01*
Y29498D01*
X11798D01*
Y37302D01*
X13398D01*
Y52098D01*
X11798D01*
Y59902D01*
X13398D01*
Y75398D01*
X11798D01*
Y83202D01*
X13398D01*
Y96653D01*
X19023Y102278D01*
X56287D01*
Y112795D01*
X83499D01*
Y102278D01*
X99223D01*
X100947Y104002D01*
X126898D01*
Y105602D01*
X133302D01*
Y97602D01*
X137202D01*
Y89798D01*
X136302D01*
Y87947D01*
X133353Y84998D01*
X111347D01*
X107647Y88698D01*
X105507D01*
Y86449D01*
X90893D01*
Y95551D01*
X105507D01*
Y93302D01*
X109553D01*
X113253Y89602D01*
X123098D01*
Y91398D01*
X118768D01*
G02Y96002I-1768J2302D01*
G01X123098D01*
Y97602D01*
X126898D01*
Y99398D01*
X102853D01*
X101129Y97674D01*
X83499D01*
Y87157D01*
X56287D01*
Y97674D01*
X20929D01*
X18002Y94747D01*
Y83202D01*
X19602D01*
Y75398D01*
X18002D01*
Y59902D01*
X19602D01*
Y52098D01*
X18002D01*
Y37302D01*
X19602D01*
Y29302D01*
X20198D01*
Y37302D01*
X28002D01*
Y35702D01*
X38998D01*
Y37302D01*
X40598D01*
Y39253D01*
X51947Y50602D01*
X56498D01*
Y51502D01*
X64498D01*
Y55402D01*
X69103D01*
G03X69386Y56084I0J400D01*
G01X67872Y57598D01*
X56802D01*
Y56698D01*
X48802D01*
Y52798D01*
X40998D01*
Y53698D01*
X28002D01*
Y52098D01*
X20198D01*
Y59902D01*
X28002D01*
Y58302D01*
X40998D01*
Y59202D01*
X48998D01*
Y60498D01*
X40998D01*
Y66902D01*
X42598D01*
Y70998D01*
X41698D01*
Y78998D01*
X37798D01*
Y79578D01*
G03X37116Y79861I-400J0D01*
G01X34253Y76998D01*
X28002D01*
Y75398D01*
X20198D01*
Y83202D01*
X28002D01*
Y81602D01*
X32347D01*
X35947Y85202D01*
X37798D01*
Y86802D01*
X44202D01*
Y78802D01*
X45498D01*
Y86802D01*
X51902D01*
Y85202D01*
X52953D01*
X55702Y82453D01*
Y77202D01*
X58698D01*
Y78102D01*
X66698D01*
Y82002D01*
X74502D01*
Y81102D01*
X76053D01*
X87202Y69953D01*
Y64702D01*
X88802D01*
Y63802D01*
X91947D01*
X94247Y66102D01*
X96098D01*
Y67002D01*
X104098D01*
Y70902D01*
X105698D01*
Y74998D01*
X104098D01*
Y82802D01*
X111902D01*
Y74998D01*
X110302D01*
Y70902D01*
X111902D01*
Y64498D01*
X103902D01*
Y63202D01*
X111902D01*
Y62302D01*
X116198D01*
Y71702D01*
X126602D01*
Y70202D01*
X130398D01*
Y71702D01*
X140802D01*
Y56198D01*
X130398D01*
Y65598D01*
X126602D01*
Y56198D01*
X116198D01*
Y57698D01*
X111902D01*
Y56798D01*
X110302D01*
Y52102D01*
X111902D01*
Y44298D01*
X104098D01*
Y52102D01*
X105698D01*
Y56798D01*
X104098D01*
Y60598D01*
X96080D01*
G03X95416Y60761I-381J-120D01*
G01X93853Y59198D01*
X88802D01*
Y58298D01*
X80802D01*
Y57002D01*
X88802D01*
Y50598D01*
X87202D01*
Y50053D01*
X96616Y40639D01*
G03X97298Y40922I282J283D01*
G01Y44298D01*
X95698D01*
Y52102D01*
X103502D01*
Y44298D01*
X101902D01*
Y41853D01*
X104377Y39378D01*
X104441Y39368D01*
G02X101132Y36059I-441J-2868D01*
G01X101122Y36123D01*
X99984Y37261D01*
G03X99302Y36978I-282J-283D01*
G01Y24602D01*
X102402D01*
Y19574D01*
X112396D01*
Y22610D01*
X120316D01*
Y11934D01*
X112396D01*
Y14970D01*
X104325D01*
X104253Y14898D01*
X102402D01*
Y9798D01*
X91598D01*
Y24602D01*
X94698D01*
Y36047D01*
X82598Y48147D01*
Y50598D01*
X80998D01*
Y54398D01*
X72998D01*
Y55298D01*
X72302D01*
Y48998D01*
X64302D01*
Y47702D01*
X72301D01*
Y43922D01*
G03X72984Y43639I400J0D01*
G01X73322Y43977D01*
X73332Y44041D01*
G02X76641Y40732I2868J-441D01*
G01X76577Y40722D01*
X75139Y39284D01*
G03X75422Y38602I283J-282D01*
G01X75902D01*
Y30798D01*
X68098D01*
Y31378D01*
G03X67416Y31661I-400J0D01*
G01X66853Y31098D01*
X55202D01*
Y29498D01*
X47398D01*
Y37302D01*
X55202D01*
Y35702D01*
X64947D01*
X66247Y37002D01*
X68098D01*
Y38602D01*
X69698D01*
Y40353D01*
X69961Y40616D01*
G03X69678Y41298I-283J282D01*
G01X64498D01*
Y45098D01*
X56498D01*
Y45998D01*
X53853D01*
X45839Y37984D01*
G03X46122Y37302I283J-282D01*
G01X46802D01*
Y29498D01*
X38998D01*
Y31098D01*
X28002D01*
Y29498D01*
X22522D01*
G03X22239Y28816I0J-400D01*
G01X33153Y17902D01*
X36332D01*
G02X39868I1768J-2302D01*
G01X45298D01*
Y23002D01*
X66102D01*
Y8198D01*
G37*
G54D22*
X137500Y137500D03*
G54D23*
X80400Y9300D03*
X99600Y78900D03*
X88500Y144200D03*
X125700Y36600D03*
%LPD*%
G75*
G54D10*
X20000Y20000D03*
X137500Y137500D03*
G54D20*
X121400Y67900D03*
Y60000D03*
X135600D03*
Y67900D03*
G54D11*
X15700Y33400D03*
Y56000D03*
Y79300D03*
X24100Y33400D03*
X42900D03*
X51300D03*
X24100Y56000D03*
Y79300D03*
X52200Y120400D03*
Y128800D03*
X39700D03*
Y120400D03*
X72000Y9300D03*
X80400D03*
X72000Y34700D03*
X80400D03*
Y22100D03*
X72000D03*
X75900Y120400D03*
Y128800D03*
X63900D03*
Y120400D03*
X99600Y48200D03*
X108000D03*
Y78900D03*
X99600D03*
X98200Y120400D03*
Y128800D03*
X87200Y120400D03*
Y128800D03*
X96900Y144200D03*
X88500D03*
X138600Y36600D03*
X125700D03*
X138600Y45000D03*
X125700D03*
G54D21*
G01X15700Y33400D02*
Y56000D01*
G01Y33400D02*
Y28600D01*
X17300Y27000D01*
X20800D01*
X32200Y15600D01*
X38100D01*
G01X15700Y56000D02*
Y79300D01*
G01X69893Y99976D02*
X19976D01*
X15700Y95700D01*
Y79300D01*
G01X38100Y15600D02*
X50700D01*
G01X60400Y48300D02*
X52900D01*
X42900Y38300D01*
Y33400D01*
G01D02*
X24100D01*
G01Y56000D02*
X44900D01*
G01Y63700D02*
Y74900D01*
G01X48700Y82900D02*
X52000D01*
X53400Y81500D01*
Y74900D01*
G01X44900D02*
X53400D01*
G01X24100Y79300D02*
X33300D01*
X36900Y82900D01*
X41000D01*
G01X52200Y128800D02*
X39700D01*
G01Y111200D02*
Y120400D01*
G01X80400Y5198D02*
Y9300D01*
G01D02*
Y13402D01*
G01Y9300D02*
X84502D01*
G01X60700Y7998D02*
Y15600D01*
G01X72000Y22100D02*
Y9300D01*
G01X60700Y15600D02*
Y23202D01*
G01Y15600D02*
X66302D01*
G01X72000Y34700D02*
Y39400D01*
X76200Y43600D01*
G01X51300Y33400D02*
X65900D01*
X67200Y34700D01*
X72000D01*
G01X80400D02*
Y22100D01*
G01X68400Y41098D02*
Y44500D01*
G01D02*
Y47902D01*
G01X64298Y44500D02*
X68400D01*
G01D02*
X72502D01*
G01X52900Y59900D02*
X59300D01*
G01D02*
X68825D01*
X71125Y57600D01*
X76900D01*
G01X59400Y65800D02*
Y60000D01*
X59300Y59900D01*
G01X70600Y63500D02*
Y71100D01*
G01X53400Y74900D02*
X62600D01*
G01X84900Y61500D02*
Y69000D01*
X75100Y78800D01*
X70600D01*
G01X130100Y101700D02*
X101900D01*
X100176Y99976D01*
X69893D01*
G01X75900Y120400D02*
X87200D01*
G01X75900Y128800D02*
X63900D01*
G01X87200D02*
X75900D01*
G01X52200Y120400D02*
X63900D01*
G01X99600Y48200D02*
Y40900D01*
X104000Y36500D01*
G01X84900Y53800D02*
Y49100D01*
X97000Y37000D01*
Y17200D01*
G01D02*
X103300D01*
X103372Y17272D01*
X116356D01*
G01X84900Y61500D02*
X92900D01*
X95200Y63800D01*
X100000D01*
G01X108000Y78900D02*
Y67700D01*
G01Y60000D02*
Y48200D01*
G01X121400Y60000D02*
X108000D01*
G01X99600Y74798D02*
Y78900D01*
G01D02*
Y83002D01*
G01X95498Y78900D02*
X99600D01*
G01X134000Y93700D02*
Y88900D01*
X132400Y87300D01*
X112300D01*
X108600Y91000D01*
X98200D01*
G01X115100Y115700D02*
X115000Y115800D01*
Y119600D01*
X112400Y122200D01*
X106500D01*
G01X123100Y111900D02*
X119200D01*
X116292Y108992D01*
X98200D01*
G01Y120400D02*
Y108992D01*
G01X87200Y120400D02*
X98200D01*
G01Y128800D02*
X118800D01*
X123100Y124500D01*
Y119600D01*
G01X98200Y128800D02*
X87200D01*
G01X98200D02*
Y138100D01*
X96900Y139400D01*
Y144200D01*
G01X88500Y140098D02*
Y144200D01*
G01D02*
Y148302D01*
G01X84398Y144200D02*
X88500D01*
G01X109200D02*
X96900D01*
G01X125700Y32498D02*
Y36600D01*
G01X121598D02*
X125700D01*
G01D02*
X129802D01*
G01X138600D02*
Y21800D01*
G01Y12745D02*
X146055D01*
G01X135600Y55998D02*
Y60000D01*
G01X130198D02*
X135600D01*
G01D02*
X141002D01*
G01X125700Y45000D02*
X138600D01*
G01X121400Y67900D02*
X135600D01*
G01X126300Y93700D02*
X117000D01*
G01X119200Y136598D02*
Y144200D01*
G01D02*
Y151802D01*
G01Y144200D02*
X124802D01*
G54D12*
X50700Y15600D03*
X60700D03*
X97000Y17200D03*
X109200Y144200D03*
X119200D03*
G54D13*
X38100Y15600D03*
X39700Y111200D03*
X59400Y65800D03*
X70600Y63500D03*
X76200Y43600D03*
X104000Y36500D03*
X106500Y122200D03*
X117000Y93700D03*
X146055Y12745D03*
G54D14*
X44900Y63700D03*
Y56000D03*
X52900Y59900D03*
X70600Y71100D03*
X76900Y57600D03*
X68400Y44500D03*
Y52200D03*
X60400Y48300D03*
X70600Y78800D03*
X62600Y74900D03*
X84900Y53800D03*
Y61500D03*
X108000Y60000D03*
Y67700D03*
X100000Y63800D03*
X123100Y111900D03*
Y119600D03*
X115100Y115700D03*
G54D15*
X48700Y82900D03*
X41000D03*
X44900Y74900D03*
X126300Y93700D03*
X134000D03*
X130100Y101700D03*
G54D16*
X69893Y99976D03*
G54D17*
X98200Y91000D03*
Y108992D03*
G54D18*
X138600Y12745D03*
Y21800D03*
G54D19*
X116356Y17272D03*
M02*
